<svg viewBox="0 0 200 200" xmlns="http://www.w3.org/2000/svg"><path d="M24.889 131.765a.333.333 0 0 0 .666 0c-.077-13.672-.863-94.949-.858-95 .2-.356 139.73.149 142.348-.978-15.132.061-138.783.325-141.907.328-.438 0-1-.11-1.073.461-.039.279.778 91.443.824 95.189ZM81.609 137.885a.15.15 0 0 0 0 .3c2.251.095 32.288-.272 34.844-.256a.16.16 0 0 0 0-.32c-4.53.091-32.299.13-34.844.276ZM116.934 139.859c-4.556.011-33.845-.184-35.13-.061a.164.164 0 0 0 0 .328c1.139.115 32.756.13 35.332.151.269.002.064-.418-.202-.418ZM118.289 141.9c-4.743.046-33.817.151-36.491.32a.183.183 0 0 0 0 .366c2.379.108 33.812-.322 36.491-.345a.171.171 0 0 0 0-.341ZM81.9 144.192a.2.2 0 0 0 0 .407c1.121.1 32.014-.194 34.551-.21a.192.192 0 0 0 0-.384c-4.503.023-33.29.062-34.551.187Z" fill="#0f1e36" class="fill-262626"></path><path d="M31.245 43.684c-.628 11.045.991 80.122.809 86.557a.2.2 0 0 0 .407 0q-.023-2.1-.043-4.2c2.361.018 13.664.169 14.253.049a.185.185 0 0 0 0-.354 16.981 16.981 0 0 0-2.318-.066c.021-.262-.095-2.707-.535-1.808-.021.1.156 1.5.141 1.81-.3 0-5.483.051-6 .059.018-.968.008-1.936-.02-2.9.75-.046 4.2-.064 4.568-.151a.114.114 0 0 0 0-.218c-.366-.076-3.821-.025-4.576.018q-.061-1.816-.21-3.631c-.015-.182-.312-.427-.3-.246.151 2.292.194 4.84.125 7.137q-2.569.031-5.139.051c-.1-9.764-.364-35.624-.4-38.792 2.55.008 5.1.031 7.649.041.023 1.1.069 3.731.082 3.949.028.54.642.489 1.055.494 1.48.02 5.1.008 5.421-.015a.659.659 0 0 0 .553-.272 28.124 28.124 0 0 0-.021-4.166c2.945 0 13.329.041 15.577.018a.19.19 0 0 0 0-.379c-3.977-.044-28.111-.01-30.316-.008q-.023-1.882-.044-3.767c1.655.026 9.268.162 10.11.108 0 .515.041 1.567.044 1.577a.187.187 0 0 0 .256.174c2.284-.832 4.578-1.638 6.865-2.458 2.128.013 11.764.225 12.839.144a.157.157 0 0 0 0-.313c-1.055-.095-10.312-.033-12.237-.043.061-.023 2.458-.886 3.595-1.3 1.344-.013 7.011.051 8.5 0a.11.11 0 0 0 0-.22c-1.36-.151-2.74-.128-4.11-.148-.064-.917-.084-1.839-.118-2.758a.19.19 0 0 0-.379 0l.023 1.216c-1.27.343-12.37 4.476-14.806 5.355.072-4.589-.123-26.145-.148-33.2 2.438.858 14.954 5.094 14.977 5.089-.03 1.859-.166 11.279-.105 12.424a.2.2 0 0 0 .4 0c.072-1.145.008-11.318-.018-13.551 5.147.02 18.913.153 20.649.1-.061 3.222-.148 6.451-.1 9.675a.192.192 0 0 0 .384 0c.113-3.263.092-6.535.1-9.8a.534.534 0 0 0-.343-.325c-3.09-.1-23.814.094-23.819.1-.287-.1-5.5-1.928-5.946-2.082 8.606 0 24.17-.072 31.668-.159-.018 2.118-.156 10.691-.062 12.85a.139.139 0 0 0 .277 0c.126-2.156.11-10.827.123-12.993a.167.167 0 0 0-.251-.141c-2.125-.038-30.467.044-32.823.077-1.739-.6-3.475-1.206-5.216-1.8-.241-.082-.361.215-.233.377v1.439c-2.489-.064-5 .046-7.478.138-.356 7.7-.164 27.955-.24 30.1l-2.382.008c-.082-6.554-.386-32.127-.459-38.36 17.8-.118 127.039-.827 137.016-.894.13 12.23.4 38.424.41 39.292a89.766 89.766 0 0 0-3.406-.08c.033-.7-.492-23.612-.482-24.421a.169.169 0 0 0-.14-.241c-1.14-.051-6.407-.274-6.656-.23 0-1.124-.043-3.511-.112-3.519-.049-.056-5.993-.146-7.15-.074a.153.153 0 0 0-.251.115c.013 1.913.272 27.385.369 28.324-1.337 0-2.676-.007-4.013-.013a9.336 9.336 0 0 1 1.058-.43.28.28 0 0 0 .189-.333c-.312-1.933-5.682-27.781-6.066-30a.175.175 0 0 0-.259-.126c-.745.2-3.923.861-4.227.968.01-.292.018-.584.03-.873a.24.24 0 0 0-.187-.366c-1.482-.075-8.1-.113-8.855-.005-.217.03-.074 2.186-.048 3.075-1.56-.028-8.722-.143-9.524-.01-.025.005.105-6.292.105-6.3 0-.067-.161-.241-.245-.238-1.862.036-11.2-.085-11.214-.082-.558 4.42-.258 32.5-.34 34.6l-2.069-.008a19.2 19.2 0 0 0-.044-2.238c0-.015-.161-20.283-.128-22.176a.28.28 0 0 0-.207-.45 52.965 52.965 0 0 0-6.5.34c.011.9.013 1.808.016 2.712-1.127.018-5.352.008-6.346.13 0-.192-.012-5.047.016-7.28a.252.252 0 0 0-.369-.22c-1.434-.02-7.913.085-8.665.233a.2.2 0 0 0-.144.274c-.01 3.785.423 27.587.52 28.629q-2.328 0-4.658-.015a.207.207 0 0 0 0 .414c11.759.041 86.775.523 90.012.4q.015 1.582.036 3.162c-2.943-.138-84.95.149-91.669.174a.193.193 0 0 0 0 .385c11.971.007 75.073-.026 76.788-.026.028 1.014.131 4.261.208 4.45a.418.418 0 0 0 .4.241c.3.026 5.042.057 5.329.051a.684.684 0 0 0 .509-.153.7.7 0 0 0 .146-.52c0-.259-.1-3.611-.187-4.077 2.825.013 5.662.059 8.479-.082.107 10.072.394 35.786.425 38.575a89.097 89.097 0 0 0-4.136-.064c.095-.73.287-24.094.313-26.019a.165.165 0 0 0-.131-.254c-1.147-.023-5.741-.274-6.878-.2-.082 0-.32.184-.32.3q-.008 1.487-.021 2.973c-1.183.023-6.778.059-7.016.092 0-.458-.062-5.984-.072-8.286a.162.162 0 0 0-.174-.187c-1.559.076-7.764.309-9.311.494a.192.192 0 0 0-.189.194c-.051 4.052-.062 29.887-.01 30.947l-2.118.007c.02-.85.013-28.723 0-30.984a.2.2 0 0 0-.171-.305c-1.106 0-5.9-.036-6.348.008 0-.909.01-1.821.028-2.73a.214.214 0 0 0-.161-.351c-1.037.023-5.193.033-6.22.141a.227.227 0 0 0-.185.333c.006 2.064-.035 4.128-.035 6.189-1.355.023-7.462.044-8.123.138a.2.2 0 0 0-.315.167c-.023 3.575-.2 26.49-.12 27.466h-2.62c-.095-.817-5.421-24.677-5.856-26.631a.153.153 0 0 0-.21-.113c-.028-.008-3.409.855-3.995 1.109v-2.817a.214.214 0 0 0-.153-.358c-1.252 0-6.7-.039-7.232.043a.267.267 0 0 0-.427.208c.013 1.308.028 6.422.025 7.515h-.007c-1.168-.018-5.46-.08-6.435-.044 0-.143-.018-2.479-.034-2.983-.007-.269.052-.7-.138-.909-.243-.266-2.586-.136-3.339-.12a.222.222 0 0 0 0 .443 22.168 22.168 0 0 1 2.978.117c0 .021.043 4.085.079 4.172.069.166.4-.162.415-.244.986.047 5.306 0 6.474-.007h.007c.028 1.977-.015 19.572.082 20.668h-.735a.172.172 0 0 0 0 .343c9.5.013 72.837-.025 72.84-.025l.038 3.4s-67.526.271-72.857.307a.244.244 0 0 0 0 .487c4.75-.021 57.288-.318 57.5-.318.028 1.009.131 4.249.208 4.438a.419.419 0 0 0 .4.241c.3.025 5.042.056 5.328.051a.686.686 0 0 0 .51-.154.7.7 0 0 0 .146-.52c0-.258-.1-3.608-.187-4.071.315 0 8.947-.159 8.95-.159q.047 4.026.089 8.051h-17.277a.169.169 0 0 0 0 .338l17.456.018c.407-12.166-.86-87.745-.75-94.744-17.71-.545-127.552.794-137.715.625ZM46.35 87.029c-.051.966.075 3.877.013 3.947s-6.166.128-6.24.069c-.059-.046-.1-2.909-.133-4 1.272 0 5.515-.016 6.36-.016Zm11.012-7.689v1.07a62.32 62.32 0 0 0-2.9.01c.974-.335 1.962-.663 2.9-1.08Zm.038-24.353c0 .261-.007.523-.012.784a17.9 17.9 0 0 0-2.188-.791Zm-18.824-2.335c1.163 0 2.325-.008 3.485-.074 0 3.784-.01 14.137-.015 15.53a19.23 19.23 0 0 0-1.831-1.825.205.205 0 0 0-.284 0c-.453.425-.907.85-1.339 1.293-.216-2.41-.054-14.427-.016-14.924Zm-2.507 1.838c.379-.017 1.788-.025 2.108-.066-.128 1.959-.085 11.037.043 13.618a.209.209 0 0 0 .351.146 31.488 31.488 0 0 0 1.508-1.483c.671.612 1.288 1.28 1.964 1.885v.763c-.274 0-2.881.238-3.478.258-.1 0-.1.157 0 .154.594-.008 3.2.113 3.475.095v2.294c-.285-.02-3.229.251-3.908.272a.058.058 0 0 0 0 .115c.676-.01 3.626.123 3.908.09v2.256c-.258-.039-3.042.122-3.687.11a.05.05 0 0 0 0 .1c.645.017 3.426.309 3.687.281v2.461c-.251-.036-3.386.274-4.128.33-.074.006-.077.123 0 .118.742-.041 3.869.062 4.133.018.005.832.007 1.665.015 2.494-2.043.108-4.087.115-6.13.087.083-.778.134-24.493.139-26.396Zm-1.324-1.856c1.186-.01 2.372.01 3.557.015q-.054.708-.1 1.411c-.371-.01-1.82.08-2.233.123a.141.141 0 0 0-.187.131c-.023 3.5-.189 25.74-.089 26.621a.171.171 0 0 0 .112.292c2.085.025 4.169-.008 6.254-.021.005.456.007.912.015 1.368-.842-.067-6.658-.033-7.416-.031.08-3.869.087-27.725.087-29.909Zm48.726 1.191c.678.013 6.888-.274 8.258-.241v2.184c-1.409-.013-6.912-.2-8.236 0-.012-.65-.02-1.298-.022-1.943Zm.02 2.343c1.355.015 6.842.074 8.23.074-.015 6.443-.008 12.88.131 19.323-1.288.023-6.492.033-7.777.238-.233.036-.144.356.051.379 1.291.151 6.463-.051 7.736-.079.018.876.026 1.754.041 2.632-1.4-.01-7.408-.082-7.936-.043a7088.01 7088.01 0 0 1-.476-22.524Zm.54 26.119a52.825 52.825 0 0 0-.043-3.057c.5.035 6.522-.039 7.923-.049.023 1.042.061 2.082.141 3.116q-4.011-.007-8.021-.01Zm8.195-21.175c1.016.059 5.234-.107 6.34-.174v2.39c-1.1.025-5.838-.108-6.322-.041-.008-.725-.016-1.45-.018-2.175Zm.018 2.674c.471.041 5.221.013 6.319-.018v14.186c-1.049.092-5.605.085-6.089.139a2428.8 2428.8 0 0 1-.23-14.307Zm6.319 14.6c0 .4 0 1.682-.007 1.933-1 .026-5.019.1-6.018.177-.01-.632-.028-1.267-.049-1.9.464.057 5.025-.145 6.074-.209ZM92.535 82.3c.011-.417.013-.835.011-1.254 1 .017 5-.139 6-.172a13.505 13.505 0 0 0 .046 1.439q-3.025-.013-6.057-.013ZM98.978 58c1.949.076 3.908-.082 5.859.012l-.038 1.55c-1.936.069-3.88-.008-5.811.148-.002-.572-.007-1.143-.01-1.71Zm.016 2.135c.952.054 4.821-.087 5.794-.11-.135 5.634.052 19.748.054 19.782-.95.015-4.778.053-5.736.138l-.112-19.811ZM99.1 82.31c.046-.566.013-1.815.013-1.844.955.044 4.788-.071 5.748-.094.013.281.08 1.59.133 1.959q-2.942-.012-5.894-.021Zm9.006-34.132c1.787.064 8.906.2 10.678.162a50.878 50.878 0 0 0-.159 3.641c-1.754-.018-8.778.069-10.524.259q.012-2.033.009-4.062Zm0 4.52c1.757 0 8.771-.259 10.522-.256 0 .684.179 23.149.182 23.523-1.885-.075-10.028-.026-10.822.087.001-.185.117-22.307.119-23.352Zm-.118 23.843c.787.048 8.935-.077 10.827-.054 0 .722.015 2.883.013 3.242-1.808-.049-9.042-.241-10.845-.172.017-1.004.006-2.01.006-3.016Zm-.087 5.8c.041-.765.064-1.531.077-2.3 1.8.118 9.042.121 10.85.121 0 .74.01 1.477.064 2.212q-5.492-.015-10.992-.036Zm39.238-3.559c-.722.113-3.544.632-4.2.87l-.669-2.811c.331-.041 3.511-.832 4.223-.981.196.916.634 2.863.647 2.919Zm-9.377-25.73c.363 0 3.48-.848 4.148-1.055.674 3.91 4.5 23.453 4.5 23.476-.722.141-3.926.8-4.243.917-.341-1.483-4.074-18.762-4.469-20.678.019-.889.037-1.777.065-2.663ZM119.2 54.77c.776.148 7.972-.021 9.534-.013q.042 1.6.077 3.206c-1.627.025-8.868.013-9.616.11-.013-.927-.018-3.309.005-3.303Zm0 3.782c.747.064 7.987-.074 9.615-.121.036 1.788.2 18.584.2 19.272-1.6.036-8.867.146-9.674.218-.005-.745-.092-15.899-.141-19.369Zm.135 23.822c.062-1.07.011-3.762.008-4.03.789.043 8.064-.093 9.667-.108a87.78 87.78 0 0 0 .046 4.169Zm10.215.031a52.16 52.16 0 0 0 .064-2.307c1.229.181 6.323.233 7.616.245.023.7.061 1.393.146 2.085Zm.059-5.972c1.242.126 6.261.2 7.518.2.021.858.08 2.966.085 3.163-1.273-.018-6.346-.22-7.595-.126.01-1.078-.002-2.159-.005-3.237Zm7.508-.266c-1.255 0-6.261-.179-7.508-.172 0-1.854-.471-21.912-.548-24.168.684.008 6.965-.13 8.361-.074-.054 2.028-.305 24.276-.302 24.414Zm.64 6.261c.051-.971-.084-24.747-.079-25.213.548 2.971 4.863 23.292 5.375 25.226q-2.644-.004-5.293-.013Zm5.793.015c.007-.036-.328-1.6-.5-2.343.7-.092 3.5-.712 4.212-.827.187.768.369 1.536.507 2.315-.647.241-1.252.584-1.882.863Zm7.5-28c1.139.095 5.743.008 6.906.023l-.041 2.472c-1.129-.016-5.664-.139-6.788-.049q-.048-1.22-.079-2.445Zm.092 2.955c1.119.088 5.639-.033 6.765-.051-.015 1.065.1 19.992.113 20.5-1.116-.046-5.992-.095-6.548-.038-.002-.262-.294-19.339-.332-20.409Zm.338 20.824c.535.08 5.429-.036 6.55-.023.023.94.051 1.882.1 2.822-1.117.01-5.519-.141-6.6-.11-.009-.35-.044-2.14-.052-2.688Zm.033 4.246c.028-.371.034-.748.028-1.124a41.583 41.583 0 0 0 6.612.046c.023.371.049.74.077 1.111q-3.359-.014-6.719-.032Zm6.737-24.445c.246.057 5.419.133 6.51.154-.013.737-.028 1.477-.044 2.215-1.111 0-6-.105-6.46-.031-.008-.777-.008-1.561-.008-2.337Zm.008 2.827c.464.075 5.342-.03 6.451-.036-.047 2.351.125 16.673.128 16.753-1.03.03-5.811-.121-6.31-.082-.007-.143-.25-13.062-.271-16.634Zm.284 17.073c.472.082 5.219.03 6.31-.011.028.74.1 2.448.105 2.564-1.091-.023-6.156-.09-6.338-.082-.019-.821-.05-1.646-.079-2.47Zm.095 4.581c0-.543 0-1.086-.01-1.629.177.013 5.244.021 6.338.033a12.169 12.169 0 0 0 .105 1.6c-1.598-.003-5.887-.001-6.435-.003Zm1.455 8.555c-.118.046-5.35-.01-5.391-.054s-.176-3.1-.263-4.225l5.659-.008c-.018.455.131 4.234-.007 4.288Zm-62.43 34.327a26.133 26.133 0 0 0 .041-2.722c.528.09 6.758-.036 6.783-.043-.018.914-.053 1.838 0 2.747Zm6.832-3.272c-.028-.01-6.266-.01-6.794.092l.013-21.141c1.106.074 5.741.033 6.947.033-.053 6.028-.153 20.04-.166 21.016Zm.172-21.454c-1.209-.008-5.847-.074-6.953 0q0-1.828.013-3.659c.5.056 5.769-.031 6.973-.041q-.015 1.846-.033 3.7Zm.343-.538c.668-.089 3.257-.945 3.907-1.142 1.445 6.686 2.853 13.383 4.318 20.066-.687.2-3.334.945-3.957 1.168a6390.092 6390.092 0 0 0-4.268-18.166c0-.387.002-1.677 0-1.926Zm-.059 25.244c.082-7.273.008-14.55.056-21.825q2.412 10.92 4.937 21.812-2.496.008-4.993.013Zm4.445-4.65c.653-.149 3.28-.945 3.957-1.145l.553 2.5c-.674.192-3.3.9-3.9 1.158-.205-.829-.605-2.503-.605-2.513Zm1.073 4.637c-.1-.55-.228-1.1-.353-1.644.65-.105 3.244-.912 3.907-1.106.2.909.356 1.851.643 2.74-.701 0-3.5.007-4.197.01Zm7.751-27.241c.635.054 6.694-.2 8.028-.243l.018 4.141c-1.37-.023-6.74-.113-8.051-.077q0-1.91.005-3.821Zm-.176 27.221c.071-.774.064-1.555.069-2.331 2.668.139 5.347.013 8.02.039-.01.758-.013 1.516.018 2.271q-4.05.015-8.107.021Zm8.094-2.707c-1.352-.023-7.408-.169-8.023-.09.008-.817.1-19.651.1-20.176 1.311.057 6.684.052 8.054.052.002.735-.126 19.899-.131 20.214Zm6.684-28.226c.455.041 5.129 0 6.179-.013-.021 4.012-.041 26.744-.036 28.034-2.095.006-4.192-.01-6.287 0 .023-3.449.144-27.3.144-28.021Zm-.592 30.892-5.6.023c.064-1.288.057-2.586.036-3.879.4.051 4.632 0 5.577 0q-.01 1.93-.013 3.853Zm.013-4.228c-.945-.015-5.18-.13-5.585-.084-.013-.725 0-23.5 0-24.153.414.044 4.821-.01 5.815-.015-.002.335-.225 23.215-.23 24.249Zm.235-24.621c-1 0-5.405-.046-5.82 0 0-1.652-.015-3.3 0-4.952.97.038 4.891-.131 5.872-.151-.003.908-.044 4.386-.052 5.1Zm.172 28.849c.01-.776.015-1.552.023-2.328 2.1-.012 4.2-.051 6.3-.069q.007 1.187.033 2.371-3.183.014-6.356.023Zm9.165-6.351c.694.052 7.451-.1 8.95-.12v3.019c-1.5-.007-8.23-.107-8.939-.015-.001-.815-.009-2.738-.011-2.887Zm.051 6.315c.01-.932-.036-2.952-.036-3.029.689.092 7.436.038 8.937.038-.01 1-.056 2 .01 3-2.97-.009-5.941-.022-8.911-.012Zm8.9-6.839c-1.519.017-8.277.025-8.953.089-.018-1.71.021-19.82.026-21.087.666.084 7.431-.195 8.944-.221-.018 3.002-.026 17.149-.018 21.216Zm.017-21.564c-1.51.031-8.26.005-8.942.118a143.8 143.8 0 0 1 .036-2.461c1.48-.005 7.429-.42 8.919-.512-.003.949-.008 1.902-.014 2.852Zm.395 28.408a17.2 17.2 0 0 0 .031-1.183c1.154.1 5.8.054 6.954.062 0 .368.008.735.031 1.1-1.012 0-5.693.018-7.017.018Zm.01-3.866c.512.074 5.8-.144 6.983-.192 0 .412 0 2.145-.008 2.6-1.154-.036-5.8-.249-6.957-.192a435.7 435.7 0 0 1-.019-2.219Zm6.983-.513c-1.18 0-6.473-.005-6.98.09 0-.584 0-13.006.018-15.525.512.084 5.805-.054 7-.067-.031 4.745-.041 15.08-.039 15.499Zm.041-15.825c-1.2-.013-6.491-.153-7-.066q.007-1.222.007-2.446c.238.028 5.831-.084 7.011-.095q-.011 1.301-.019 2.604Zm.471-5.9c1.1.11 5.531.072 6.632.1-.01.709-.043 2.128-.046 2.128-1.144 0-6.386-.126-6.588-.069-.001-.728-.001-1.445.001-2.164Zm-.141 26.081c.049-.679.036-1.365.036-2.046 2.092.094 4.2.02 6.294.048a16.048 16.048 0 0 0 .047 1.964c-.88.001-5.131.024-6.378.029Zm6.336-2.372c-2.1-.061-4.2-.227-6.3-.222.01-.794.1-19.871.1-20.88.2.056 6.589 0 6.589 0-.058 2.545-.39 21.036-.39 21.097Zm-4.787 10.984c-.118.046-5.35-.011-5.391-.054s-.174-3.094-.263-4.213q2.826 0 5.656-.015c-.013.453.136 4.232-.002 4.282Z" fill="#0f1e36" class="fill-262626"></path><path d="M193.658 183.133c.005-.184.031-3.178.02-3.234-.11-.681-15.141-32.639-18.319-38.938.036-.052.1-94.188.044-95.866a.181.181 0 0 0-.361 0c-.126 3.375-.082 95.54-.077 95.6-.108-.028-20.12.164-21.354.171a.212.212 0 0 0 0 .423c5.1-.033 20.993-.074 21.318-.123 2.993 6.271 18.017 38.26 18.15 38.618-.32.046-187.354.195-187.556-.125-.129-.2 16.951-34.275 17.825-35.9.117-.218-.215-.413-.333-.195C19.691 149.718 4.949 179.487 5 180.042c0 .041.067 2.392.067 2.4 23.924 1.291 174.6.986 188.4 1.275a.326.326 0 0 0 .191-.584Zm-.369-.056c-24.485-.013-174.154-.525-187.882-.73-.007-.115-.087-1.716-.079-2.064.471.069 187.485.087 187.931 0 .01.471.028 2.627.03 2.794Z" fill="#0f1e36" class="fill-262626"></path><path d="M173.49 167.344a.267.267 0 0 0 .228-.4c-.617-.9-8.735-21.792-9.139-22.527a1.5 1.5 0 0 0-1.417-.778c-1.19-.1-6.368-.021-7.756.03-.3.011-.305.482 0 .472 1.483-.052 7.7-.121 8.223.048.565.185 8.862 21.715 9.4 22.647-4.722.269-146.265-.691-146.455-.689.743-2.018 1.588-3.992 2.382-5.989.13-.331-.4-.474-.53-.146-.853 2.143-1.767 4.261-2.546 6.432-.1.272 146.42.974 147.61.9Z" fill="#0f1e36" class="fill-262626"></path><path d="M150.059 152.42c1.468.007 2.937-.059 4.405-.141.148.558.307 1.114.466 1.67-2.333.02-39.028.317-42.68.348q-.16-1.253-.309-2.5c1.385 0 2.77-.015 4.15-.087a.231.231 0 0 0 0-.461 78.197 78.197 0 0 0-4.227-.087c-.046-.386-.338-2.839-.436-3.679 1.048.02 2.1.041 3.137-.039a.213.213 0 0 0 0-.425c-1.062-.105-2.133-.1-3.2-.105-.046-.4-.092-.806-.135-1.211-.018-.164-.277-.167-.259 0 .038.4.082.807.123 1.209-1.142-.013-10.545-.1-10.688-.105l.076-1.1c.018-.233-.345-.233-.363 0l-.077 1.093c-3.708-.033-7.418-.061-11.126-.064.038-.44.071-.883.115-1.324.015-.151-.223-.151-.238 0l-.126 1.324c-.525 0-6.773-.008-9.372-.033a.133.133 0 0 0 0 .266c3.111.038 6.223.108 9.334.172q-.192 2.055-.366 4.107c-.687 0-7.682.046-10.494.054a.141.141 0 0 0 0 .281q5.232.024 10.46.075c-.079.965-.156 1.93-.222 2.9-3.946.049-12.361.123-12.422.123-.231 0-.507 2.443-.73 3.5-.917 0-1.834.015-2.748.02a.175.175 0 0 0 0 .349h2.671c-.092.438-.609 2.932-.776 3.741l-11.121-.008c.466-1.372.937-2.745 1.365-4.13.1-.338-.425-.482-.528-.146-.438 1.416-.829 2.847-1.226 4.276-.743 0-7.79-.008-10.574-.008.208-.524.4-1.052.577-1.587.11-.341-.431-.489-.536-.149-.174.579-.343 1.158-.517 1.736-2.2 0-9.208.024-10.514.041.369-1.172.743-2.345 1.114-3.515q2.954.079 5.905.363c.343.034.34-.5 0-.538a67.797 67.797 0 0 0-5.757-.294c.474-1.5.938-3.009 1.365-4.525a.312.312 0 0 0-.6-.166 159.225 159.225 0 0 0-1.311 4.694 78 78 0 0 0-9.164.527c-.172.021-.177.292 0 .274a74.5 74.5 0 0 1 9.044-.343c-.312 1.178-.62 2.356-.937 3.531-3.718.051-7.437.133-11.157.154a.065.065 0 0 0 0 .13c3.677.029 7.354.123 11.031.182a166 166 0 0 1-.514 1.869.126.126 0 0 0 .243.067c.192-.645.392-1.288.591-1.931.794.013 7.785.067 10.484.069a28.88 28.88 0 0 1-.827 2.359c-.056.138.166.194.223.061.338-.806.691-1.608 1.024-2.417l10.642.015c-.164.584-.33 1.171-.5 1.752a.13.13 0 0 0 .251.069l.6-1.821 11.2.021a78.29 78.29 0 0 1-.476 2.136c-.026.107.141.153.166.046.179-.73.374-1.457.574-2.18 3.411.008 12.4.023 13.49.026.005.453.023.909.066 1.36.016.141.249.2.272.036.064-.464.1-.927.125-1.4l11.316.023a17.405 17.405 0 0 0 .09 1.772.115.115 0 0 0 .23 0c.061-.586.082-1.178.092-1.769q6.556.011 13.111.025a15.22 15.22 0 0 0 .41 2.087.18.18 0 0 0 .351-.048 15.765 15.765 0 0 0-.195-2.041q5.574.011 11.149.018c.146.827.29 1.654.423 2.481.028.166.276.095.253-.069-.118-.8-.225-1.606-.33-2.412l10.2.015q.192 1.08.351 2.166c.016.108.177.062.164-.046l-.284-2.12c1.2 0 9.247.01 12.066.01q.537 1.171 1.114 2.325c.061.126.248.016.187-.11-.364-.727-.7-1.467-1.014-2.217h9.805c.225.771.45 1.541.668 2.317a.1.1 0 0 0 .2-.056c-.205-.753-.4-1.506-.6-2.261 1.39 0 9.41.041 12.02-.131a.183.183 0 0 0 0-.366c-4.046-.274-8.136-.182-12.2-.164q-.512-1.951-1.007-3.905c3.171-.008 6.351.038 9.514-.133a.182.182 0 0 0 0-.364c-3.061-.151-9.511-.084-9.665-.084a272.023 272.023 0 0 0-.893-3.321c13.828-.113 12.855-.746-.167-.612-.153-.566-.3-1.132-.468-1.7.755-.043 7.049-.44 9.446-.555.154-.008.156-.249 0-.241-2.394.1-8.791.279-9.592.307-.059-.2-.118-.394-.18-.589a.231.231 0 0 0-.445.123c.038.162.079.323.12.484a72.549 72.549 0 0 0-4.276.256.191.191 0 0 0 0 .398Zm-62.438 9.88-13.321-.006c.215-.768.909-3.262 1.042-3.741q6.211.007 12.425.025c-.025.507-.133 2.989-.146 3.722Zm.167-4.223q-6.172.054-12.343.095a30.849 30.849 0 0 0 .72-3.14q5.9-.054 11.807-.066a154.198 154.198 0 0 0-.184 3.113Zm56.766-3.472a24.643 24.643 0 0 0 .876 3.285l-10.766.023a64.668 64.668 0 0 0-.627-3.226l10.517-.08Zm-11.068.084c.226 1.076.459 2.151.689 3.224l-9.853.021a81.836 81.836 0 0 0-.5-3.168Zm-10.217.082c.141 1.058.3 2.113.476 3.165l-11 .018c-.018-.123-.3-2.184-.417-3.093l10.941-.088Zm-11.331.092q.177 1.545.366 3.091-6.215.012-12.43.038c.006-.233.054-2.273.082-3.062 3.606-.011 11.593-.062 11.982-.065Zm-11.577-7.528c2.136.028 10.622.13 10.783.133q.184 1.844.384 3.685c-.97 0-11.062.028-11.4.031.02-.431.172-2.997.233-3.847Zm-.266 4.4c2.519.01 10.184.048 11.5.053.092.838.185 1.673.279 2.51q-5.949.05-11.9.113c.039-.89.077-1.781.126-2.672Zm-.695 10.572H88.11c.018-.525.1-3.007.126-3.724q5.612.012 11.226.018c-.01.643-.054 3.112-.062 3.706Zm.08-4.307c-2.243.01-9.723.064-11.221.077.015-.361.11-2.433.143-3.106q5.589-.019 11.178-.034a236.204 236.204 0 0 0-.1 3.063Zm.123-3.58c-1.426.016-8.878.1-11.18.131.046-.963.092-1.926.146-2.889 1.38.013 8.822.067 11.162.077q-.073 1.338-.131 2.678Zm.156-3.229q-5.585.019-11.167.059c.031-.553.215-3.288.279-4.1 1.385.028 8.8.154 11.126.185a270.919 270.919 0 0 0-.238 3.853Zm.059 11.119c0-.423.033-2.9.046-3.711 3.012 0 11.357-.013 12.517-.015.095.758.4 3.244.456 3.731q-6.507-.007-13.019-.008Zm13.564.005c-.054-.341-.422-2.827-.553-3.731l11.016-.028c.215 1.257.446 2.514.671 3.769Zm11.513.01c-.161-1.257-.32-2.515-.489-3.772l9.9-.025c.269 1.265.53 2.532.763 3.805Zm10.433.01c-.172-1.27-.354-2.542-.561-3.807 3.585-.011 10.832-.029 10.87-.029.2.556 1.221 3.124 1.547 3.852Zm22.058.034-9.893-.016c-.32-.8-1.19-3.375-1.331-3.854 3.229-.007 9.935-.033 10.061-.033q.588 1.944 1.163 3.9Zm-2.287-7.805c.028.1.65 2.312.95 3.318-2.758 0-9.465.013-10.061.013-.31-1.093-.6-2.192-.907-3.288.233-.007 6.912-.023 10.019-.046ZM155.066 148.3c2.614-.133 5.226-.328 7.84-.456.216-.01.216-.348 0-.335-2.612.148-5.229.228-7.84.371-.266.02-.272.438 0 .42ZM78.382 169.469a.269.269 0 0 0-.143.133c-.11.187-1.273 8.179-1.186 8.438s45.276.345 45.486.148c.182-.171-.765-8.135-.832-8.908-.02-.231-.389-.21-.384-.218s-42.802.353-42.941.407Zm43.771 8.345c-.021 0-44.554-.066-44.69-.012-.02 0 1.132-7.89 1.242-7.99.021-.018 42.459-.241 42.516-.243.117 1.411.896 8.174.932 8.245ZM94.994 107.036a.219.219 0 0 0-.218-.217c-.945.03-1.89.069-2.837.105a.186.186 0 0 0 0 .371q1.305-.015 2.612-.036c-.023 1.019-.182 4.614-.085 5.7.028.31.433.95.466.645.126-1.083.057-5.474.062-6.568ZM144.6 101.162c0 1.124.047 11.142.1 11.175a.516.516 0 0 0 .479.476c.5.08 2.074.09 2.343.085.356.02.579-.082.558-.477.011-.276.423-10.491.42-11.041 0-.326.121-.863-.312-.961-.228-.051-2.661-.01-3.214.026-.454.028-.374.323-.374.717Zm3.4-.374c.128.046-.172 11.621-.213 11.7-.1.182-2.717.143-2.819-.182.03-.033-.085-11.564-.062-11.587-.014.015 3.02.041 3.1.069ZM153.16 109.021a.236.236 0 0 0-.174.23c.039.94.19 7.309.192 7.324.046.4.366.374.692.369.568-.013 1.137.015 1.7.038a.175.175 0 0 0 .172-.171c.023-1.25.023-7.729-.087-7.744a8.587 8.587 0 0 0-2.495-.046Zm.446 7.51Zm1.726-7.019c-.051 1.186.054 5.929.069 7.117-.405-.026-1.782-.08-1.793-.095s-.13-6.182-.14-7.07a6.326 6.326 0 0 1 1.864.048ZM163.188 104.422c-.01-.09-.077-.2-.187-.187a24.667 24.667 0 0 1-2.678.1.184.184 0 0 0-.182.182c-.01 1.51.087 7.541.107 9.049 0 .046.126.213.213.215.929.023 1.859.057 2.791.064a.26.26 0 0 0 .256-.256c-.041-1.523-.156-7.649-.32-9.167Zm-2.517 8.929c-.028-1.437-.113-7.208-.159-8.663.763-.046 1.537-.107 2.3-.084-.062 1.464.146 7.29.181 8.732-.775 0-1.549.007-2.322.015ZM137.007 119.205c.356-.016.735-.064.8-.487.013-.079.034-16.609.057-17.113a.506.506 0 0 0-.093-.382.572.572 0 0 0-.417-.151c-.33-.02-2.246-.11-2.853-.041-.481.057-.368.482-.358.858.026 1.2.12 16.991.23 17.019.139.207.451.21.738.238a13.2 13.2 0 0 0 1.896.059Zm-2.312-.43c.015-.036-.277-17.272-.215-17.359a9.01 9.01 0 0 1 3.063.145c.023.108-.167 17.262-.323 17.306a12.937 12.937 0 0 1-2.52-.092ZM134.362 99.377a10.924 10.924 0 0 0 2.935.054.634.634 0 0 0 .112-.471c0-.228-.089-2.428-.112-2.494a13.518 13.518 0 0 0-2.953-.082c-.256.013-.243.23-.23.427a20.38 20.38 0 0 0 .248 2.566Zm2.569-2.7c0 .033.012 2.379.015 2.423-.033 0-2.318.069-2.353.035s-.139-2.368-.141-2.435c.089-.035 2.412-.024 2.479-.027ZM123.763 109.489a3.352 3.352 0 0 0-3.354.09 3.042 3.042 0 0 0-.943 3.488c.564 1.918 3.376 2.007 4.712 1.057a2.787 2.787 0 0 0-.415-4.635Zm.551 4.141a3.414 3.414 0 0 1-3.214.681 2.205 2.205 0 0 1-1.316-1.331c-.789-2.282.876-4.167 3.234-3.452a2.621 2.621 0 0 1 1.296 4.102ZM107.754 107.482c.01-.026.187.363.335.161a7.192 7.192 0 0 1 1.557-.563.166.166 0 0 0 .115-.2c-.235-.679-1.615-4.815-1.692-4.891-.2-.2-1.316.3-1.621.409-.161.057-.4.1-.369.32.177.464 1.567 4.444 1.675 4.764Zm-.077-5.227c.131-.038.2 0 .2.118.054.08 1.286 3.752 1.511 4.433a7.666 7.666 0 0 0-1.278.443c-.053-.21-1.774-4.515-1.751-4.558s1.303-.43 1.318-.436ZM153.194 72.928a.417.417 0 0 0 .386.327 11.8 11.8 0 0 0 1.445.016c.307 0 .665.069.724-.31.08-.5.218-10.461.149-11.674a.221.221 0 0 0-.274-.21 18.067 18.067 0 0 1-1.844.151c-.371.015-.732.036-.745.486-.035 1.224.089 11.178.159 11.214Zm.233-11.083c.03-.192.036-.182.233-.213.115-.018 1.318-.051 1.8-.1-.062 1.07.013 11.352-.067 11.423a6.047 6.047 0 0 1-1.864-.089c.018-.041-.146-10.75-.102-11.021ZM160.3 74.505c.066.228.238.328.525.3.512-.048 1.021-.143 1.531-.215a.147.147 0 0 0 .107-.141 93.4 93.4 0 0 0-.018-9.956.192.192 0 0 0-.184-.184 11.824 11.824 0 0 0-2.112.01.176.176 0 0 0-.175.174c.041 1.641.274 9.976.326 10.012Zm1.784-9.841a86.7 86.7 0 0 1 .093 9.659c-.244.028-1.386.246-1.532.1.011-.026-.292-8.182-.32-9.767a12.294 12.294 0 0 1 1.759.008ZM140.528 61.84c.256.368.876.11 1.235.01a3.862 3.862 0 0 0 1.29-.589 51.406 51.406 0 0 0-1.613-5.354c-.064-.154-.133-.321-.315-.369a8.1 8.1 0 0 0-2.4.722.467.467 0 0 0-.01.489c.118.297 1.79 5.073 1.813 5.091Zm.571-5.834c.018.08 1.542 4.643 1.588 4.8.054.181.146.315-.069.394a9.349 9.349 0 0 1-1.723.41c-.187-.617-1.867-5.037-1.854-5.1a9.311 9.311 0 0 1 2.059-.504ZM132.109 54.158c-.146.023-.136.3-.136.3s.11 3.539.125 3.57a.314.314 0 0 0 .287.241c.241.02 1.742-.087 2.243-.105a.22.22 0 0 0 .216-.215c-.016-.285-.023-2.83-.067-3.383-.018-.215-.041-.418-.287-.471a14.581 14.581 0 0 0-2.381.063Zm2.171.33c0 .046.1 2.822.126 3.262-.3.013-1.813.062-1.844.064l-.156-3.257c.389-.038 1.649-.046 1.874-.069ZM121.705 67.061c.128.172.389.141.65.149.527.015 1.052.017 1.58.03a15.01 15.01 0 0 1 1.618.064c.318.044.879.126 1.076-.2a1.027 1.027 0 0 0 .074-.522c.013-1.058 0-2.115 0-3.173.023-.486-.536-.374-.853-.343-1.442.059-2.878.131-4.32.1a.24.24 0 0 0-.236.236c.018 1.147.136 2.292.236 3.434a.257.257 0 0 0 .175.225Zm2.332-3.536q1.13-.042 2.256-.1h.077c.025 0 .041 0 .008.041-.115 1.108-.1 2.263-.154 3.375-.041.051-.212.018-.266.018a10.389 10.389 0 0 1-1.234.038c-.909-.036-1.7 0-2.681-.033-.057-1.078-.177-2.159-.259-3.24.753-.046 1.501-.071 2.253-.099ZM113.7 60.641a1.686 1.686 0 0 0 1.575-1.9 1.831 1.831 0 0 0-3.326-.906 1.892 1.892 0 0 0 1.751 2.806Zm-1.61-2.425a1.52 1.52 0 0 1 2.893.559 1.66 1.66 0 0 1-1.083 1.633 1.68 1.68 0 0 1-1.808-2.192Z" fill="#0f1e36" class="fill-262626"></path><path d="M113.369 62.554a3.373 3.373 0 0 0 3.665-3.134 4.11 4.11 0 0 0-2.282-3.918 3.908 3.908 0 0 0-3.9.812c-2.309 2.123-.422 6.076 2.517 6.24Zm-2.509-5.679a3.253 3.253 0 0 1 5.774 2.542 3.161 3.161 0 0 1-2.855 2.817c-2.617.187-4.635-3.265-2.919-5.359ZM100.615 70.236c.115.374 2.486.185 2.7.092.194-.084.179-.266.181-.45 0-.341.062-6.8.011-7.111-.085-.53-.679-.331-1.06-.3a16.652 16.652 0 0 0-1.824.189.167.167 0 0 0-.123.164c-.072 1.232.1 7.396.115 7.416Zm.222-7.277a19.982 19.982 0 0 1 2.09-.162 54.479 54.479 0 0 1 .241 7.306c-.067.049-2.238.013-2.238.005.07-.601-.144-5.984-.093-7.149ZM93.844 74.07a.228.228 0 0 0 .387.151c.7-.031 1.393-.051 2.089-.069a.119.119 0 0 0 .115-.116c-.064-2.276.054-4.553.024-6.826a.167.167 0 0 0-.162-.162 18.165 18.165 0 0 0-2.274.018.175.175 0 0 0-.171.172c-.008 2.281.005 4.555-.008 6.832Zm.315-4.418c.02-.75.041-1.5.036-2.253a12.926 12.926 0 0 1 1.938-.031c0 2.185.113 4.371.075 6.558-.641 0-1.281 0-1.921-.013-.044-1.421-.202-2.837-.128-4.261ZM85.678 70.131c1.134-.043 2.261-.156 3.4-.1a.16.16 0 0 0 .159-.158c.064-1.611.271-8.051.34-9.659.021-.469.241-1.283-.435-1.334a15.5 15.5 0 0 0-3.06.233c-.187.186-.128 6.924-.044 8.7.011.2.326.205.318 0-.059-1.429-.046-8.433-.038-8.443a23.037 23.037 0 0 1 2.878-.059c.153.069-.2 8.812-.269 10.384a9.383 9.383 0 0 0-3.3.074.185.185 0 0 0 .051.362ZM51.226 98.921c.051 1.032-.146 3.76.008 4.776a.1.1 0 0 0 .182 0 40.3 40.3 0 0 0 .089-4.2c.873-.03 4.753-.053 5.16-.153a.092.092 0 0 0 0-.177c-.405-.118-5.173-.069-5.18-.069q-.019-1.883-.1-3.764a.16.16 0 0 0-.089-.223 67.7 67.7 0 0 0-6.784.036.209.209 0 0 0-.192.146 11.73 11.73 0 0 0-.094 1.283c-.477-.108-5.524.048-6.679.115a.143.143 0 0 0-.125.195c-.021 4.156-.128 15.4-.023 15.953a.2.2 0 0 0 .374 0c.087-.471.01-10.2 0-12.256 1.05-.048 5.305-.13 6.378-.215 0 .184.008.369.021.551a.208.208 0 0 0 .415 0c.02-.7-.023-1.411-.041-2.118 2.224-.118 4.454.099 6.68.12Zm-7.078 1.063c-1.075 0-5.326.228-6.376.256a358.68 358.68 0 0 0-.036-3.28c1.094-.008 5.992.084 6.479.038-.015.387-.064 2.377-.067 2.986Zm.392-1.513c0-.105 0-2.036.023-2.9 1.127-.072 6.084-.105 6.576-.162q.061 1.568.082 3.135a48.378 48.378 0 0 0-6.681-.073ZM55.743 75.86c-.845-.249-8.6-1.511-10.317-1.885-.105-.023-.148.136-.043.159 1.72.389 9.423 2.082 10.306 2.12a.2.2 0 0 0 .054-.394ZM55.753 72.472c-3.462-.945-7.042-1.429-10.552-2.151-.123-.026-.177.164-.054.192 3.493.789 6.95 1.818 10.489 2.381.271.046.397-.345.117-.422ZM56.03 69.714c-.825-.348-8.906-1.9-10.691-2.351a.094.094 0 0 0-.049.182c1.775.463 9.734 2.591 10.625 2.6.21-.003.333-.339.115-.431ZM45.144 64.137c1.734.4 9.47 2.394 10.341 2.394.194 0 .3-.3.105-.389-.776-.354-8.658-1.783-10.41-2.138-.08-.016-.12.112-.036.133ZM46.3 60.267a.106.106 0 0 0-.057.2c1.409.387 7.012 2.113 8.448 2.341a.209.209 0 0 0 .11-.4c-1.362-.508-7.086-1.779-8.501-2.141ZM55.543 59.807c-.763-.315-7.963-2.149-9.541-2.641-.143-.043-.2.177-.061.223 1.587.53 8.711 2.817 9.533 2.917.313.038.308-.4.069-.499ZM67.384 70.029a.138.138 0 0 0 0 .276c.991.026 4.963.1 5.951.036a.163.163 0 0 0 0-.325c-.991-.016-4.96.046-5.951.013ZM74.5 66.464c-3.065-.2-6.148-.143-9.218-.2a.279.279 0 0 0 0 .558c3.07.029 6.148.172 9.218.052a.207.207 0 0 0 0-.41ZM61.648 63.819c2.187.144 12.005.6 13.057.415a.238.238 0 0 0 0-.456c-.527-.084-10.867-.028-13.057-.092-.087-.003-.087.128 0 .133ZM74.262 60.646a.213.213 0 0 0 0-.407c-.507-.133-10.619.118-12.76.144a.09.09 0 0 0 0 .179c2.141.015 12.253.218 12.76.084ZM175.246 50.176a27.071 27.071 0 0 0 4.938-3.447c.883-.781 1.093-1.055 1.234-1.38.484-1.122.159-2.671-2.576-6.461-2.6-3.6-5.083-6.955-9.219-8.6a5.79 5.79 0 0 0-3.81-.472c-.881.239-1.629.874-3.122 2.141a4.206 4.206 0 0 0-1.923 3.339 1.82 1.82 0 0 1 .646-.179 2.028 2.028 0 0 1 1.1.251 32.348 32.348 0 0 1 6.967 4.645 29.378 29.378 0 0 1 4.827 5.444 5.048 5.048 0 0 1 .938 4.719Z" fill="#0f1e36" class="fill-262626"></path><path d="M194.99 54.531c-1.086-5.61-6.453-25.456-6.832-27.13a11.03 11.03 0 0 0-1.1-3.234 3.14 3.14 0 0 0-1.9-1.03c-6.049-1.255-11.977-3.042-18.015-4.343-2.688-.579-4.035-.87-5.1-1.216-.6-.246-6.048-1.839-6.491-1.106-.848.711-.331 2.6-.024 3.725a17.446 17.446 0 0 0 2.541 5.155 60.564 60.564 0 0 1 3.387 6.1c1.007-.865 1.662-1.664 2.443-2.251a4.65 4.65 0 0 1 1.532-.653c3.349-.617 6.391.623 11.172 5.227a31.959 31.959 0 0 1 5.639 8.371 5.833 5.833 0 0 1 .581 2.612 3.852 3.852 0 0 1-.412 1.79 5.281 5.281 0 0 1-1.4 1.5 15.943 15.943 0 0 1-1.621 1.222c.468.307 2.184 1.423 4.268 2.737a17.41 17.41 0 0 1-2.527 8 10.009 10.009 0 0 0-1.478 3.992c-.2 3.268 2.236 5.913 4.669 7.762a2.121 2.121 0 0 0 .473 4.174 2.016 2.016 0 0 0 1.9-2.925 2.318 2.318 0 0 0-2.051-1.272c-9.441-9.616-1.145-9.5-.584-19.477 2.894 1.818 6.369 3.926 8.218 4.778 2.522 1.261 2.786-.939 2.712-2.508ZM186.283 73.1a1.615 1.615 0 0 1-1.493 2.418 1.727 1.727 0 0 1-1.662-1.614 1.675 1.675 0 0 1 1.365-1.731 1.923 1.923 0 0 1 1.79.927ZM184.081 76.994c.189-.148-.051-.41-.243-.318-1.173.574-1.657 5.455-.861 7.644.049.136.267.08.218-.061-.43-1.235-.131-6.476.886-7.265Z" fill="#0f1e36" class="fill-262626"></path><path d="M184.432 77.6c-1.094.577-.625 6.978-.515 7.736.015.11.182.062.167-.046-.185-1.367.263-6.978.588-7.449.108-.15-.094-.314-.24-.241ZM185.648 77.506a.2.2 0 0 0-.381-.105c-.379 1.06.122 5.716.355 6.85.026.131.223.074.2-.054a49.18 49.18 0 0 1-.174-6.691ZM186.573 77.086a.194.194 0 0 0-.349.046c-.061.233 1.242 5.117 1.529 6.159a.083.083 0 0 0 .159-.044c-.272-1.029-1.186-5.961-1.339-6.161ZM187.937 76.52a.213.213 0 0 0-.425 0c-.077.932 1.808 4.3 1.811 5.306a.094.094 0 0 0 .187 0c.007-.904-1.457-4.343-1.573-5.306ZM78.487 108.947a8.179 8.179 0 0 0 .436-2.128 7.057 7.057 0 0 0-3.485-.387 4.373 4.373 0 0 0-.533 1.864 8 8 0 0 0 3.582.651ZM64.708 104.593v1.657a1.8 1.8 0 0 0 1.247.1 4.707 4.707 0 0 0 .11-1.614 2.821 2.821 0 0 0-1.357-.143ZM77.012 130.846a25.782 25.782 0 0 1-5-4.453 6.453 6.453 0 0 1 .381-2.2 11.265 11.265 0 0 0-3.357-.253 38.47 38.47 0 0 0-.215 4.9c3.042.013 4.812 1.15 6.591 3.534 2.725 3.414 4.2 7.577 5.4 11.728.029.095-.117.133-.146.041a35.39 35.39 0 0 0-5.848-11.631 6.864 6.864 0 0 0-6.061-3.065 72.066 72.066 0 0 1-4.784.461 200.714 200.714 0 0 0-19.999 11.982.26.26 0 0 1-.271.182c-4.681 3.119-9.314 6.31-14.053 9.339.066.264.145.548.24.847-2.745.3-7.1 1.363-8.168 4.241a3.063 3.063 0 0 0 1.449 3.867 7.153 7.153 0 0 0 5.339-.11 15.471 15.471 0 0 0 4.335-2.643 15.355 15.355 0 0 0 2.2 2.1q4.329-1.417 8.819-3.032a22.324 22.324 0 0 0 9.759 4.133c1.637.351 4.935.845 4.469-1.813 4.658 1.651 13.6 2.166 19.3-2.254 4.123-3.277 5.194-8.079 6.249-12.831a37.6 37.6 0 0 0 .87-9.583 25.951 25.951 0 0 1-7.499-3.487Zm-47.672 28.6a7.853 7.853 0 0 1-5.081.756 2.894 2.894 0 0 1-1.918-1.193c-1.073-2.064.681-4.169 2.535-4.991a3.3 3.3 0 0 0-.166 2.4 2.3 2.3 0 0 0 1.956 1.533c.116 0 .116-.171 0-.179-1.918-.205-2.143-2.7-1.19-4.018.189-.079.379-.156.571-.228a3.117 3.117 0 0 0 1.887 3.678c.125.046.177-.151.054-.2-1.342-.517-2.226-2.476-1.317-3.7.287-.095.579-.179.874-.258-.313 1 .476 2.993 1.654 3.042.123.005.12-.182 0-.192-.615-.046-.973-.643-1.158-1.168a1.985 1.985 0 0 1 .011-1.813 16.791 16.791 0 0 1 1.948-.336 15.248 15.248 0 0 0 2.6 4.732 17.576 17.576 0 0 1-3.26 2.135Zm26.751 1.137a18.66 18.66 0 0 1-4.161-.632c-.048-.082-.353-.438-.417-.561A1.863 1.863 0 0 1 52 157.1c.108-.089-.046-.238-.153-.153a2.187 2.187 0 0 0-.471 2.845 24.14 24.14 0 0 1-1.35-.441 2.052 2.052 0 0 1 .592-3.073c.128-.071.015-.263-.116-.2a2.377 2.377 0 0 0-1.037 3.06c-.335-.13-1.062-.438-1.1-.453a2.453 2.453 0 0 1 1.025-3.045c.123-.094-.049-.263-.172-.171a2.844 2.844 0 0 0-1.255 3.029 31.352 31.352 0 0 1-3.569-2.028c2.494-.9 5.029-1.859 7.454-2.807.156-.069.312-.135.466-.2a7.775 7.775 0 0 1 2.97 1.759c1.216 1.113 4.162 5.287.807 5.361ZM66.77 148.43c-1.324.423-12.5 4.848-13.352 5.216a8.938 8.938 0 0 0-.773-.315c.056-.025 11.72-4.286 14.091-5.026.08-.026.113.1.034.125Z" fill="#0f1e36" class="fill-262626"></path><path d="M29.373 150.827c4.535-2.95 9-6.01 13.51-9-5.044-2.069-10.038-4.924-13.077-9.6-.069-.1.094-.2.164-.1 3.272 4.569 8.5 7.163 13.561 9.268a158.312 158.312 0 0 1 19.544-11.442 72.6 72.6 0 0 1-10.474-.233c-12.12-1.948-21.571-3.234-26.639-3.774a11.16 11.16 0 0 0-4.829.468c-.587.2-5.14 1.831-6.494 6.208-1 3.231.32 6.094.968 7.5 2.75 5.829 9.003 8.541 13.766 10.705ZM62.276 105.1a5.2 5.2 0 0 1 .189-1.654c.113-.166.2-.853 4.5.167.389.092.5.612.592.985.5 2.167-.039 2.328-.717 2.5a2.869 2.869 0 0 1 .038 1.508c.387 0 1.844.087 2.128.12-.01.615.141 6.205.338 8.2a10.267 10.267 0 0 1 2.3.072c.614.264.881 1.022 1.208 1.959.238.679.277 1.068.679 1.452a1.988 1.988 0 0 0 .653.412c.177-.363.356-.724.532-1.088 3.4 1.518 7.17 3.408 10.382 5.2a228.494 228.494 0 0 0-4.138-7.091 15.19 15.19 0 0 1-2.154-4.84 13.444 13.444 0 0 1-.33-2.532c.12-.033.939-.254 1.083-.5a24.759 24.759 0 0 0 .609-4.251c-.171-.427-.7-.486-1.088-.637a8.174 8.174 0 0 1 5.39-7.636 4.831 4.831 0 0 0-4.742-1.719 17.516 17.516 0 0 0-4.264 8.965 4.552 4.552 0 0 0-1.086.369 15.407 15.407 0 0 0-.565 1.521c-.961.044-4.925-.115-5.749-.215-.018-1.022-.046-2.282-.881-2.988a3.825 3.825 0 0 0-.663-.279c.215-2.21.571-4.71.991-6.94a4.543 4.543 0 0 0-2.661 0 12.27 12.27 0 0 0-1.982 6.458 1.929 1.929 0 0 0-.7.548 7.634 7.634 0 0 0-.207 1.921c0 .223.33.221.315.013Zm11.541 2.661a8.567 8.567 0 0 1 .22-.83 7.7 7.7 0 0 0 .369-1.047c.076-.266.151-.63.494-.63a8.894 8.894 0 0 0 .942-.113c.909.039 1.882.1 2.789.185a6.518 6.518 0 0 1 1.029.356.368.368 0 0 1 .179.407c-.053.622-.153 1.244-.245 1.861-.108.577-.149 1.171-.274 1.742-.057.192-.159.21-.333.248-.22.049-.436.126-.653.192a19.018 19.018 0 0 1-4.709-.581 8.779 8.779 0 0 1 .192-1.79Z" fill="#0f1e36" class="fill-262626"></path><path d="M79.622 96.54c-1.916.433-3.35 2.084-5.178 2.794-1.821.819-4.174 1.3-5.593-.479a8.873 8.873 0 0 1-1.475-3.173c-.051-.159-.355-.207-.309-.046 1.792 7.114 6.332 5.273 11.054 2.064.525-.323 1.083-.579 1.631-.858.177-.092.048-.333-.13-.302ZM75.806 118.344c-1.219.648-1.91 2.067-2.545 3.229a21.091 21.091 0 0 0-1.754 4.215c-.036.123.159.21.21.09.574-1.332 1.17-2.635 1.867-3.91a9.235 9.235 0 0 1 2.409-3.3.187.187 0 0 0-.187-.324ZM96.8 127.071a77.208 77.208 0 0 0-1.526-11.817 23.431 23.431 0 0 0-1.716-5.337 64.944 64.944 0 0 0-6.678-10.151c-1.058-1.349-2.3-2.742-4.074-3.062-.187-.033-.269.248-.079.289a6.741 6.741 0 0 1 3.608 2.732c7.408 9.245 9.041 13.629 9.889 25.457.41 4.107-.128 9.674-5.352 10a14.529 14.529 0 0 1-2.63.026c-1.58-.144-3.047-.812-4.6-1.073a.2.2 0 0 0-.1.387 29.367 29.367 0 0 0 4.274 1.121 11.752 11.752 0 0 0 4.944-.315c3.291-1.21 4.252-5.081 4.04-8.257ZM68.6 116.311c-1.037-.527-3.249-1.193-4.043-.01a.746.746 0 0 0 .212.922.913.913 0 0 0-.461.97 1.891 1.891 0 0 0 .73 1.114c-.435.333-.225.948.033 1.329a11.981 11.981 0 0 0 4.766 4.015.1.1 0 0 0 .1-.163c-1.779-1.076-3.656-2.272-4.645-4.167-.141-.243-.261-.6 0-.8a8.9 8.9 0 0 0 2.414 1.359c.085.034.121-.1.039-.135a7.033 7.033 0 0 1-2.22-1.388 2.672 2.672 0 0 1-.781-.968c-.123-.346-.113-.809.271-.953a10.305 10.305 0 0 0 3.216 1.332.067.067 0 0 0 .036-.128 11.079 11.079 0 0 1-2.45-1.05c-.336-.192-.858-.41-.991-.807-.172-.507.494-.709.868-.773a6.036 6.036 0 0 1 4.458 1.764c.056.052.156-.015.11-.084a3.91 3.91 0 0 0-1.662-1.379ZM42.858 112.14c-1.427-.989-4.384-2.284-4.9.289a1.771 1.771 0 0 0-1.181 1.065 7.073 7.073 0 0 0 .4 4.83A4.163 4.163 0 0 0 40.7 120.4a.1.1 0 0 0 0-.2c-2.955-.389-4.256-2.991-3.769-5.772a9.143 9.143 0 0 0 3.746 3.513c.105.044.149-.125.046-.169a4.478 4.478 0 0 1-2.141-5.761c.8-1.34 2.761-.413 3.79.171.681.346.863.664.005.932a5.724 5.724 0 0 1-3.313-.35c-.1-.044-.151.128-.046.169a7.447 7.447 0 0 0 3.316.624.6.6 0 0 1-.2.661c-.933.658-2.149.133-3.117-.184-.087-.031-.125.11-.038.138.975.282 1.995.86 3.029.556.446.491-.107 1.165-.53 1.454a1.626 1.626 0 0 1-1.775.08c-.092-.059-.174.084-.084.145a1.959 1.959 0 0 0 2.184.041c.587-.35 1.081-1.293.477-1.838a.925.925 0 0 0 .432-1.14c.737-.293.904-.938.146-1.33Zm-4.192 4.082c-.7-.886-2.553-2.594-.763-3.35a5.726 5.726 0 0 0 .763 3.35ZM65.351 96.12c-6.02.446-11.195 4.161-15.026 8.622-.087.1.053.246.148.148 3.957-4.2 8.991-7.869 14.881-8.5.171-.014.174-.285-.003-.27Z" fill="#0f1e36" class="fill-262626"></path><path d="M69.689 107.776c-1.109.121-17.18 1.806-17.183 1.806s-.092-.361-.13-.518a8.857 8.857 0 0 1 4.776-2.353c2.143-.379 9.392.54 10.263.717.125.026.182-.166.054-.195-.848-.181-1.7-.35-2.556-.5a10.017 10.017 0 0 0-.084-1.611c-.164-.405-.651-.284-.989-.254-3.79.249-8.069.828-10.6 3.009a4.961 4.961 0 0 0-.958.835 10.687 10.687 0 0 0-6.891-7.659 12.007 12.007 0 0 0-3.085-.492.156.156 0 0 0-.151.116 3.535 3.535 0 0 0-.013 1.375c-.52-.057-2-.336-2.028-.336a.126.126 0 0 0-.182.115c.049 1.552.282 7.765.384 9.316.008.118.19.123.187 0-.031-1.554-.259-7.6-.3-9.077 3.377 3.393 7.149 7.021 12.048 7.851-.046.648.4 18.783.548 19.689-1.229-.653-10.934-7.772-11.93-8.594-.036-1.429.012-2.852.007-4.281a.137.137 0 0 0-.274 0c0 1.431-.061 4.443.018 4.509 1.729 1.478 11.749 8.76 12.3 9.011a7.623 7.623 0 0 0 .343 1.107.126.126 0 0 0 .243-.067 52.76 52.76 0 0 0-.153-.853 10.63 10.63 0 0 0 1.2.41c.243.069.328-.282.1-.371a18.672 18.672 0 0 1-1.413-.635c-.161-.863-.7-19.183-.7-19.907 4.481-.011 9.405-1.163 17.19-1.826.189-.013.161-.36-.041-.337Zm-12.719-1.523a30.51 30.51 0 0 1 7.413-1.124c.264.092.218 1.334.228 1.559-2.8-.428-5.718-.812-8.5-.11.28-.118.564-.231.859-.325Zm-14.509-5.378a9.854 9.854 0 0 1 9.341 7.3 12.92 12.92 0 0 0-9.318-6.077 8 8 0 0 1-.023-1.223Zm6.653 7.534a31.544 31.544 0 0 1-8.351-6.123 12.235 12.235 0 0 1 11.385 7.191 19.365 19.365 0 0 1-3.034-1.068Z" fill="#0f1e36" class="fill-262626"></path><path d="M62.358 118.083a6.337 6.337 0 0 0 .463-.735.582.582 0 0 0 .456-1.068c.048-1.1-1.217-1.482-2.085-1.1a6.579 6.579 0 0 0-1.8 1.291c-.819-.356-2.2-.684-2.758.222a.732.732 0 1 0 .571 1.345c.082.143.172.284.264.422-.633.794-1.8 2.215-1.145 3.247 1.035 1.035 2.512-.351 3.36-1.022a7.2 7.2 0 0 0 3.378 1.378c1.516.046 1.725-1.554.883-2.527a7.077 7.077 0 0 0-1.587-1.453Zm-.479-2.788c.563-.039 1.221.368 1.188.924a.582.582 0 0 0-.5.95q-.25.365-.515.709c-.54-.348-2.148-1.178-2.384-1.288a6.265 6.265 0 0 1 2.211-1.29Zm-4.489 2.6a.738.738 0 0 0-.267-1.2c.533-.479 1.358-.136 1.954.051-.427.4-1.367 1.424-1.441 1.508a5.214 5.214 0 0 1-.246-.354Zm1.71 2.829a4.05 4.05 0 0 1-1.541.991c-.9.182-1.222-.407-.963-1.208a8.231 8.231 0 0 1 1.047-1.8 8.3 8.3 0 0 0 1.13 1.234 1.264 1.264 0 0 0 .576.584Zm-.466-1.349v.026a7.97 7.97 0 0 1-.825-.907 14.887 14.887 0 0 1 1.549-1.647c.385.146 2.1.922 2.553 1.2-.243.307-.5.6-.768.888a1.3 1.3 0 0 0-2.509.444Zm5.457 1.7c-.466 1.382-2.934-.041-3.782-.464a1.288 1.288 0 0 0 .917-1.27 10.013 10.013 0 0 0 1-1.091c.854.617 2.183 1.633 1.865 2.827ZM63.722 124.027a23.367 23.367 0 0 1-6.96.3c-.074-.011-.107.105-.03.115a16.759 16.759 0 0 0 7.047-.218c.121-.039.069-.218-.057-.197ZM62.7 125.911a47.846 47.846 0 0 1-5.4 0c-.066-.013-.1.089-.028.105.061.123 6.443.605 5.428-.105ZM156.277 143.475a4.778 4.778 0 0 0-2.482-1.116c-.33-8.187-9.116-11.636-16.27-10.417a31.153 31.153 0 0 0-7.193 1.933 21.625 21.625 0 0 0-.587-1.836c-.031-.082-.141-.156-.225-.092a10.719 10.719 0 0 0-3.019 3.567 6.786 6.786 0 0 0-5.6 1.383c-.189.159-.358.369-.62.392a29.134 29.134 0 0 1-3.805-.487.137.137 0 0 0-.136.136 7.847 7.847 0 0 0 1.877 4.978 1.4 1.4 0 0 1 .1.858c-1.7.4-5.019 2.366-4.7 5.994.256 2.492 2.545 4.072 3.557 4.771 4.445 3.073 11.646 3.347 16.6 3.29 13.961-.161 19.287-3.067 21.582-5.08a6.447 6.447 0 0 0 2.5-4.2 5.07 5.07 0 0 0-1.579-4.074Zm-29.377 6.072c-.663.414-3.754 1.741-3.828-1.071a2.017 2.017 0 0 1-2.269 1.457c-.553-.166-1.045-1.216-1.048-1.234a3.182 3.182 0 0 0-2.317.428c-.108.079-.243-.1-.141-.185a3.623 3.623 0 0 1 2.42-.729 1.921 1.921 0 0 1 .131-.569c-1.721-.425-4.09-.919-5.222.858a.109.109 0 0 1-.187-.11c1.35-2.2 4.574-1.465 5.893-1.462 2.015 1.649 5.833 2.486 8.009.747a1.728 1.728 0 0 0 .072.433 4.577 4.577 0 0 1-1.513 1.437Zm1.452-2.167c-2.392 2-6.525.807-8.512-1.27a5.912 5.912 0 0 1-.781-1.232 7.344 7.344 0 0 1-.394-2.44c.1-.655-.571-1.042-.835-1.575a7.87 7.87 0 0 1-1.209-3.749 17.2 17.2 0 0 0 2.738.5 2.845 2.845 0 0 0 1.282-.006 5.054 5.054 0 0 0 .981-.755 6.124 6.124 0 0 1 4.917-1.042.146.146 0 0 0 .161-.067 13.1 13.1 0 0 1 2.832-3.4 16.877 16.877 0 0 1 .594 1.688.147.147 0 0 0 .028.107 14.583 14.583 0 0 1 .541 2.615 2.9 2.9 0 0 0 .125.74 14.12 14.12 0 0 0 .82 1.336 7.851 7.851 0 0 1 .491 6.192c-1.559.008-3.569.561-3.776 2.358Zm27.737-.192a6.108 6.108 0 0 0-5.4.1c-.19.174-.379.333-.566.481a5.016 5.016 0 0 1 2.64 2.269c.049.09-.087.169-.136.079a4.108 4.108 0 0 0-2.975-2A11.288 11.288 0 0 1 142.1 150a2.081 2.081 0 0 1 .627 2.7c-.064.11-.238.069-.194-.054.412-1.185-.307-2.061-1.245-2.712-.263-.023-2.048-.348-3.487-.455a34.384 34.384 0 0 0-6.366 0 2.669 2.669 0 0 1-2-.256c-.2-.149-1.216-1.426-.392-2.479a2.961 2.961 0 0 1 1.583-1.05 11.5 11.5 0 0 1 4.719.131 69.3 69.3 0 0 0 7.1 1.045 5.5 5.5 0 0 0 5.344-2.669c.054-.074-.069-.143-.12-.071a5.3 5.3 0 0 1-5.957 2.294c-3.1-.33-6.069-1.332-9.2-1.408a8.223 8.223 0 0 0-1.017-6.986 2.88 2.88 0 0 1-.594-1.255 11.215 11.215 0 0 0-.5-2.65c6.978-2.745 17.108-3.657 21.6 3.628 2.527 4.623.894 6.817-.343 8.515a6.705 6.705 0 0 1 4.6.65c.17.096.011.36-.166.27Z" fill="#0f1e36" class="fill-262626"></path><path d="M130.024 144.341a.07.07 0 0 0-.071-.121.933.933 0 0 1-1.306-.422 9.873 9.873 0 0 0 .414-1.47c-.138-.133-2.061.983-2 1.2a6.64 6.64 0 0 0 1.237.372c.136.535.026 1.357-.653 1.4-.1 0-.1.156 0 .151a1.163 1.163 0 0 0 .973-1.18 1.17 1.17 0 0 0 1.406.07ZM143.043 135.534a7.831 7.831 0 0 0-9.262 3.706.037.037 0 0 0 .064.038 7.955 7.955 0 0 1 5.055-3.58 7.744 7.744 0 0 1 6.463 1.457 4.766 4.766 0 0 1 1.9 3.078c.01.09.151.093.143 0-.192-2.376-2.225-4.01-4.363-4.699ZM129.018 141.091c.051.08.179.008.128-.074-.307-.433-.53-1.145.005-1.5.479-.312.85.326 1.083.643.059.079.218.036.174-.074-.814-1.855-2.481-.467-1.39 1.005ZM124.2 141.972c-.935-.279-1.14.86-.853 1.516.023.061.125.036.1-.028-.307-.7.192-1.7.973-1.035a1.142 1.142 0 0 1 .333.53c.043.139.276.123.266-.035a1.118 1.118 0 0 0-.819-.948ZM61.441 75.993a1.925 1.925 0 0 1 1.2-.774 1.825 1.825 0 0 1 1.859-1.741 1.6 1.6 0 0 1 2.34-.963 2.94 2.94 0 0 0-.581-5.208 1.508 1.508 0 0 0-1.941-1.923 1.349 1.349 0 0 0-1.941-.6 1.706 1.706 0 0 0-2.54-.146 1.259 1.259 0 0 0-1.777 1.341.894.894 0 0 0-.981 1.053 1.2 1.2 0 0 0-1.324 1.7 1.79 1.79 0 0 0-.817 3.286 1.262 1.262 0 0 0 .671 2.394 1.336 1.336 0 0 0 .417 2.5 2.251 2.251 0 0 0 1.834 1.905 1.291 1.291 0 0 1 1.833.382.385.385 0 0 1 .546-.364 1.436 1.436 0 0 1 .906-1.377 1.941 1.941 0 0 1 .296-1.465ZM87.03 69.8a2.28 2.28 0 0 0-1.647-2.926 1.673 1.673 0 0 0-2.612-1.6 3.07 3.07 0 0 0-3.095-1.332.976.976 0 0 0-1.839-.364 1.183 1.183 0 0 0-1.936.554 1.872 1.872 0 0 0-2.612 1.48 1.792 1.792 0 0 0-1.016 2.9 1.253 1.253 0 0 0-.556 2.225 2.1 2.1 0 0 0 .822 2.927 3.09 3.09 0 0 0 1.959 3.7 2.926 2.926 0 0 0 2.758 1.693 3.691 3.691 0 0 0 3.943 0c2.1.689 4.271.149 3.557-1.718a3.939 3.939 0 0 0 1.936-4.983 1.628 1.628 0 0 0 .338-2.556Z" fill="#0f1e36" class="fill-262626"></path><path d="M80.375 96.881c-.733-.433-1.588-.623-2.341-1-.325-.187-.253-.811-.276-1.154a30.632 30.632 0 0 1 .158-5.672h.013a20.535 20.535 0 0 0 .615-2.251 19.809 19.809 0 0 1 .522-2.825c.428-1.139.9-1.4 1.106-2.522a4.922 4.922 0 0 0 .054-1.426 2.9 2.9 0 0 1-3.193-.387 3.553 3.553 0 0 1-2.886-1.473 4.582 4.582 0 0 1-2.305-4.156 2.541 2.541 0 0 0-4.737-.8 1.425 1.425 0 0 0-2.323.906 1.324 1.324 0 0 0-1.582 1.493 1.541 1.541 0 0 0-1.442 2.069c-1.744.561-.835 2.422.248 3.623-.31 4.937 1.019 16.919 8.438 14.2.079-.028.046-.156-.036-.128a4.956 4.956 0 0 1-6.079-2.512 13.532 13.532 0 0 1-1.25-3.526 27.946 27.946 0 0 1-.727-4.52.835.835 0 0 1 .3-.4 1.147 1.147 0 0 1 .512-.215.172.172 0 1 0 .049-.338 1.016 1.016 0 0 0-.881.479c-.031-.9-.005-1.81-.005-2.717a4.79 4.79 0 0 0 4.937 1.05 29.128 29.128 0 0 0 3.3-2.184 3.451 3.451 0 0 0 1.67 1.137 23.487 23.487 0 0 0 .048 3.29c.71-1.772 2.533-2.289 3-.555A1.79 1.79 0 0 1 75 85.665a3.22 3.22 0 0 1-1.692 1.4 6.508 6.508 0 0 0 4.4 1.979 26.494 26.494 0 0 0-.313 6.233c.021.3 0 .661.272.853a5.732 5.732 0 0 0 1.2.479 11.141 11.141 0 0 0 1.421.468.11.11 0 0 0 .087-.196Z" fill="#0f1e36" class="fill-262626"></path><path d="M71.545 89.419a3 3 0 0 1-2.875 3.039.238.238 0 0 0 .064.466c1.784.059 2.957-1.884 2.934-3.508a.062.062 0 0 0-.123.003ZM65.594 88.448c.059-.11.164-1.229-.046-.914a2.138 2.138 0 0 1-.246 1.15 3.823 3.823 0 0 0-.491.891.785.785 0 0 0 1 .975c.054-.023.018-.092-.026-.1a.783.783 0 0 1-.612-.392c-.229-.565.316-1.072.421-1.61ZM68.332 85.357a.08.08 0 0 0-.159 0c-.008.261-.013.52-.039.779 0 .264-.143.555-.015.8.151.2.364-.039.32-.226a10.9 10.9 0 0 1-.107-1.353ZM63.453 85.406c.013.289-.186 1.67.221 1.621a.169.169 0 0 0 .148-.169c-.028-.246-.092-.487-.128-.732a3.54 3.54 0 0 1-.02-.72c.007-.143-.21-.141-.221 0ZM69.015 83.921a.121.121 0 0 0 .164.043.124.124 0 0 0 .044-.164 1.229 1.229 0 0 0-.751-.642 1.027 1.027 0 0 0-1.039.123.2.2 0 0 0 .241.309c-.036.016.02-.007.023-.007a1.066 1.066 0 0 0 .14-.059l.063-.024a.886.886 0 0 1 1.115.421ZM100.814 38.112A1.686 1.686 0 1 0 102.5 39.8a1.687 1.687 0 0 0-1.686-1.688Zm0 2.909a1.224 1.224 0 0 1 0-2.448 1.224 1.224 0 0 1 0 2.448Z" fill="#0f1e36" class="fill-262626"></path></svg>